# xmcd CD database file
#
# Track frame offsets:
#	150
#	18375
#	36550
#	62640
#	76512
#	91842
#	121450
#	147475
#	160150
#	182850
#	192565
#	205475
#	220625
#	238275
#
# Disc length: 3299 seconds
#
# Revision: 0
# Processed by: cddbd v1.5.1PL0 Copyright (c) Steve Scherf et al.
# Submitted via: CDex 1.51
#
DISCID=ca0ce10e
DTITLE=Take 3 - What a Difference
DYEAR=1995
DGENRE=Jazz
TTITLE0=The Lady Is A Tramp
TTITLE1=What a Difference A Day Made
TTITLE2=It's Only A Paper Moon
TTITLE3=How High The Moon
TTITLE4=The Guy From Ipanema
TTITLE5=Over The Rainbow
TTITLE6=Things What They Used To Be
TTITLE7=On The Sunny Side Of The Street
TTITLE8=Stormy Blues
TTITLE9=I Can't Give You Anything But Love
TTITLE10=Makin' Whopee
TTITLE11=Route 66
TTITLE12=As Time Goes By
TTITLE13=When You're Smiling
EXTD=YEAR: 1995
EXTT0=
EXTT1=
EXTT2=
EXTT3=
EXTT4=
EXTT5=
EXTT6=
EXTT7=
EXTT8=
EXTT9=
EXTT10=
EXTT11=
EXTT12=
EXTT13=
PLAYORDER=
